<svg viewBox="0 0 24 24" version="1.1" xmlns="http://www.w3.org/2000/svg" xmlns:xlink="http://www.w3.org/1999/xlink">
<path d="M 6.6831955,0.00222363 C 5.4041556,0.05157047 4.2565363,0.92031969 3.9070344,2.2246795 L 0.10372455,16.418384 c -0.43015363,1.605361 0.51631035,3.244244 2.12167425,3.6744 l 14.1931192,3.80331 c 1.605361,0.430154 3.244244,-0.51631 3.674401,-2.121674 L 23.896228,7.5813004 C 24.326382,5.9759395 23.380503,4.3370568 21.775139,3.9069001 L 7.5814346,0.10359031 C 7.2804306,0.02293557 6.9783615,-0.00916433 6.6831955,0.00222363 Z M 10.600175,7.0996639 13.399778,9.899849 16.199963,7.0996639 20.39995,11.29965 19.000148,12.700034 16.199963,9.899849 13.399778,12.700034 10.600175,9.899849 7.7999899,12.700034 6.4001884,11.29965 Z m -5.6003701,4.1999861 2.800185,2.800186 2.8001851,-2.800186 2.799603,2.800186 2.800185,-2.800186 1.399802,1.400384 -4.199987,4.199987 -2.799603,-2.800185 -2.8001851,2.800185 -4.1999865,-4.199987 z"></path>
</svg>
